<svg xmlns="http://www.w3.org/2000/svg" viewBox="0 0 64 64" width="64" height="64">
  <defs>
    <linearGradient id="skyGradient" x1="0%" y1="0%" x2="0%" y2="100%">
      <stop offset="0%" style="stop-color:#87CEEB"/>
      <stop offset="100%" style="stop-color:#E0F4FF"/>
    </linearGradient>
    <linearGradient id="sunGradient" x1="0%" y1="0%" x2="0%" y2="100%">
      <stop offset="0%" style="stop-color:#FFD700"/>
      <stop offset="100%" style="stop-color:#FFA500"/>
    </linearGradient>
  </defs>
  <rect x="4" y="4" width="56" height="56" rx="8" fill="url(#skyGradient)" stroke="#2196F3" stroke-width="2"/>
  <circle cx="48" cy="16" r="8" fill="url(#sunGradient)"/>
  <path d="M4 44 Q20 32 32 40 Q44 48 60 36 L60 60 Q60 62 58 62 L6 62 Q4 62 4 60 Z" fill="#4CAF50"/>
  <path d="M4 50 Q16 42 28 48 Q40 54 60 44 L60 60 Q60 62 58 62 L6 62 Q4 62 4 60 Z" fill="#388E3C"/>
</svg>